<svg xmlns="http://www.w3.org/2000/svg" xmlns:xlink="http://www.w3.org/1999/xlink" viewBox="0 0 454.12 284.2"><defs><style>.cls-1,.cls-4{fill:none;}.cls-2{clip-path:url(#clip-path);}.cls-3{fill:#fbba00;}.cls-4{stroke:#fbba00;stroke-miterlimit:10;stroke-width:4px;}</style><clipPath id="clip-path" transform="translate(0 0)"><rect class="cls-1" width="454.51" height="316.15"/></clipPath></defs><title>Asset 2</title><g id="Layer_2" data-name="Layer 2"><g id="Layer_1-2" data-name="Layer 1"><g class="cls-2"><path class="cls-3" d="M36.53,186.71c0-5,2.75-9.27,7.9-9.27,5.84,0,8.07,4.81,8.07,10v5H84.8c0-20.44-5.84-37.61-40.54-37.61-13.4,0-22.16,3.43-28,7.56C8.36,168,3.2,177.26,3.2,194.26c0,18.21,6.18,24.9,24.74,34.18,6.18,3.09,12.37,5.5,17,8.07,4.47,2.58,7.39,4.29,7.39,12.19,0,5.32-2.06,10.82-8.42,10.82-6,0-8.59-4.81-8.59-10.82V243H2v3.26c0,27,14.43,35.9,40.71,35.9,31.78,0,45-11.34,45-39.85,0-43.79-51.19-31.26-51.19-55.65m110.45,52c0,15.29-2.23,20.78-7.73,20.78-8.42,0-9.28-5.15-9.28-41,0-34.86.34-41,9.28-41,7,0,7,9.79,7,15.11v10h33.32v-8.93c0-19.06-4.29-38.81-40.88-38.81-44.15,0-44.15,25.76-44.15,63.72,0,39.16,0,63.72,44.15,63.72,30.06,0,41.57-16.49,41.57-45.17V229.3H147Zm85-84c-44.15,0-44.15,25.76-44.15,63.72,0,39.16,0,63.72,44.15,63.72s44.15-24.56,44.15-63.72c0-38,0-63.72-44.15-63.72m.28,104.76c-7.39,0-8.76-5.15-8.76-41s1.37-41,8.76-41,8.76,5.15,8.76,41-1.37,41-8.76,41m136.82-70.24c0-20.44-10.14-32.12-33.84-32.12H283.7V279.79h34.36V231.53h6.36c6,0,9.45,1.89,9.45,12.37,0,6,.52,12.19.52,18.21s.22,17.75.22,17.75h33.7l-.08-29.95c0-7.21-.17-15.46-3.26-21-3.26-5.84-9.45-9.27-16.32-9.79v-.34c12-1.72,20.44-10,20.44-29.54m-46,19.58h-5v-27h4c7.73,0,12.71,2.4,12.71,12.54,0,11.85-6,14.43-11.68,14.43m88,43.11v-21.3H448V203.88H411.07V185h39.51V157.17H376.71V279.79h75.41V252Z" transform="translate(0 0)"/><path class="cls-4" d="M36.53,186.71c0-5,2.75-9.27,7.9-9.27,5.84,0,8.07,4.81,8.07,10v5H84.8c0-20.44-5.84-37.61-40.54-37.61-13.4,0-22.16,3.43-28,7.56C8.36,168,3.2,177.26,3.2,194.26c0,18.21,6.18,24.9,24.74,34.18,6.18,3.09,12.37,5.5,17,8.07,4.47,2.58,7.39,4.29,7.39,12.19,0,5.32-2.06,10.82-8.42,10.82-6,0-8.59-4.81-8.59-10.82V243H2v3.26c0,27,14.43,35.9,40.71,35.9,31.78,0,45-11.34,45-39.85C87.72,198.56,36.53,211.09,36.53,186.71Zm110.45,52c0,15.29-2.23,20.78-7.73,20.78-8.42,0-9.28-5.15-9.28-41,0-34.86.34-41,9.28-41,7,0,7,9.79,7,15.11v10h33.32v-8.93c0-19.06-4.29-38.81-40.88-38.81-44.15,0-44.15,25.76-44.15,63.72,0,39.16,0,63.72,44.15,63.72,30.06,0,41.57-16.49,41.57-45.17V229.3H147Zm85-84c-44.15,0-44.15,25.76-44.15,63.72,0,39.16,0,63.72,44.15,63.72s44.15-24.56,44.15-63.72C276.12,180.52,276.12,154.76,232,154.76Zm.28,104.76c-7.39,0-8.76-5.15-8.76-41s1.37-41,8.76-41,8.76,5.15,8.76,41S239.65,259.53,232.26,259.53Zm136.82-70.24c0-20.44-10.14-32.12-33.84-32.12H283.7V279.79h34.36V231.53h6.36c6,0,9.45,1.89,9.45,12.37,0,6,.52,12.19.52,18.21s.22,17.75.22,17.75h33.7l-.08-29.95c0-7.21-.17-15.46-3.26-21-3.26-5.84-9.45-9.27-16.32-9.79v-.34C360.66,217.1,369.08,208.86,369.08,189.28Zm-46,19.58h-5v-27h4c7.73,0,12.71,2.4,12.71,12.54C334.72,206.28,328.71,208.86,323,208.86Zm88,43.11v-21.3H448V203.88H411.07V185h39.51V157.17H376.71V279.79h75.41V252Z" transform="translate(0 0)"/><path class="cls-3" d="M2.9,140H41.54V84.72H83.08V54.57H41.54V33.31H86V2H2.9Zm92,0h38.64V2H94.89ZM204.83,65.83h-.39L184.74,2H142.81V140H178V77.94h.39L199.81,140h41.35V2H204.83ZM282.27,2,249.62,140h39.8l3.86-21.07h25.89L323.42,140h39.8L330.76,2Zm15.07,86.78,8.89-56.63h.39l8.31,56.63ZM409.6,108.69V2H371V140h80.76V108.69Z" transform="translate(0 0)"/><path class="cls-4" d="M2.9,140H41.54V84.72H83.08V54.57H41.54V33.31H86V2H2.9Zm92,0h38.64V2H94.89ZM204.83,65.83h-.39L184.74,2H142.81V140H178V77.94h.39L199.81,140h41.35V2H204.83ZM282.27,2,249.62,140h39.8l3.86-21.07h25.89L323.42,140h39.8L330.76,2Zm15.07,86.78,8.89-56.63h.39l8.31,56.63ZM409.6,108.69V2H371V140h80.76V108.69Z" transform="translate(0 0)"/></g></g></g></svg>